#Comment line ignore any data following # character 
#Hierarchical Translation and Rotation (.htr) file 
[Header]	
#Header keywords are followed by a single value 
FileType HTR		#Single word string
DataType HTRS		#Translation followed by rotation and scale data
FileVersion 1		#integer
NumSegments 84		#integer
NumFrames 2		#integer
DataFrameRate 30		#integer, data frame rate in this file
EulerRotationOrder ZYX
CalibrationUnits mm
RotationUnits Degrees
GlobalAxisofGravity Y
BoneLengthAxis Y
ScaleFactor 1.00
[SegmentNames&Hierarchy]
#CHILD	PARENT
MASTER GLOBAL
root MASTER
chest root
L_mid_tent01 root
R_mid_tent01 root
spine01 root
Bip01_Neck chest
L_humerus chest
R_humerus chest
weapon_bone chest
Bip01_Head Bip01_Neck
eye_left_bone Bip01_Head
eye_right_bone Bip01_Head
L_forearm L_humerus
L_front_hand L_forearm
L_weapon_bone L_forearm
L_front_hand01_01 L_front_hand
L_front_hand02_01 L_front_hand
L_front_hand03_01 L_front_hand
L_front_hand01_02 L_front_hand01_01
L_front_hand02_02 L_front_hand02_01
L_front_hand03_02 L_front_hand03_01
R_forearm R_humerus
R_front_hand R_forearm
R_weapon_bone R_forearm
R_front_hand01_01 R_front_hand
R_front_hand02_01 R_front_hand
R_front_hand03_01 R_front_hand
R_front_hand01_02 R_front_hand01_01
R_front_hand02_02 R_front_hand02_01
R_front_hand03_02 R_front_hand03_01
null_rope01_connect L_mid_tent01
Rope1_Seg01 null_rope01_connect
Rope1_Seg02 Rope1_Seg01
Rope1_Seg03 Rope1_Seg02
Rope1_Seg04 Rope1_Seg03
Rope1_Seg05 Rope1_Seg04
Rope1_Seg06 Rope1_Seg05
Rope1_Seg07 Rope1_Seg06
Rope1_Seg09 Rope1_Seg07
L_mid_hand01 Rope1_Seg09
L_mid_hand02 Rope1_Seg09
L_mid_hand03 Rope1_Seg09
null_rope02_connect R_mid_tent01
Rope2_Seg01 null_rope02_connect
Rope2_Seg02 Rope2_Seg01
Rope2_Seg03 Rope2_Seg02
Rope2_Seg04 Rope2_Seg03
Rope2_Seg05 Rope2_Seg04
Rope2_Seg06 Rope2_Seg05
Rope2_Seg07 Rope2_Seg06
Rope2_Seg09 Rope2_Seg07
R_mid_hand01 Rope2_Seg09
R_mid_hand02 Rope2_Seg09
R_mid_hand03 Rope2_Seg09
spine02 spine01
spine03 spine02
pelvis spine03
null_rope03_connect pelvis
null_rope04_connect pelvis
Rope3_Seg01 null_rope03_connect
Rope3_Seg02 Rope3_Seg01
Rope3_Seg03 Rope3_Seg02
Rope3_Seg04 Rope3_Seg03
Rope3_Seg05 Rope3_Seg04
Rope3_Seg06 Rope3_Seg05
Rope3_Seg07 Rope3_Seg06
Rope3_Seg08 Rope3_Seg07
Rope3_Seg09 Rope3_Seg08
R_rear_hand01 Rope3_Seg09
R_rear_hand02 Rope3_Seg09
R_rear_hand03 Rope3_Seg09
Rope4_Seg01 null_rope04_connect
Rope4_Seg02 Rope4_Seg01
Rope4_Seg03 Rope4_Seg02
Rope4_Seg04 Rope4_Seg03
Rope4_Seg05 Rope4_Seg04
Rope4_Seg06 Rope4_Seg05
Rope4_Seg07 Rope4_Seg06
Rope4_Seg08 Rope4_Seg07
Rope4_Seg09 Rope4_Seg08
L_rear_hand01 Rope4_Seg09
L_rear_hand02 Rope4_Seg09
L_rear_hand03 Rope4_Seg09
[BasePosition]
#SegmentName Tx, Ty, Tz, Rx, Ry, Rz, BoneLength
MASTER 0.000000 0.000000 0.000000 -90.000000 0.000000 0.000000 10.000000 
root 0.000000 0.000000 0.000000 0.000000 0.000000 0.000000 10.000000 
chest 0.000000 0.000000 0.000000 0.000000 0.000000 0.000000 10.000000 
L_mid_tent01 0.000000 0.000000 0.000000 0.000000 0.000000 0.000000 10.000000 
R_mid_tent01 0.000000 0.000000 0.000000 0.000000 0.000000 0.000000 10.000000 
spine01 0.000000 0.000000 0.000000 0.000000 0.000000 0.000000 10.000000 
Bip01_Neck 0.000000 0.000000 0.000000 0.000000 0.000000 0.000000 10.000000 
L_humerus 0.000000 0.000000 0.000000 0.000000 0.000000 0.000000 10.000000 
R_humerus 0.000000 0.000000 0.000000 0.000000 0.000000 0.000000 10.000000 
weapon_bone 0.000000 0.000000 0.000000 0.000000 0.000000 0.000000 10.000000 
Bip01_Head 0.000000 0.000000 0.000000 0.000000 0.000000 0.000000 10.000000 
eye_left_bone 0.000000 0.000000 0.000000 0.000000 0.000000 0.000000 10.000000 
eye_right_bone 0.000000 0.000000 0.000000 0.000000 0.000000 0.000000 10.000000 
L_forearm 0.000000 0.000000 0.000000 0.000000 0.000000 0.000000 10.000000 
L_front_hand 0.000000 0.000000 0.000000 0.000000 0.000000 0.000000 10.000000 
L_weapon_bone 0.000000 0.000000 0.000000 0.000000 0.000000 0.000000 10.000000 
L_front_hand01_01 0.000000 0.000000 0.000000 0.000000 0.000000 0.000000 10.000000 
L_front_hand02_01 0.000000 0.000000 0.000000 0.000000 0.000000 0.000000 10.000000 
L_front_hand03_01 0.000000 0.000000 0.000000 0.000000 0.000000 0.000000 10.000000 
L_front_hand01_02 0.000000 0.000000 0.000000 0.000000 0.000000 0.000000 10.000000 
L_front_hand02_02 0.000000 0.000000 0.000000 0.000000 0.000000 0.000000 10.000000 
L_front_hand03_02 0.000000 0.000000 0.000000 0.000000 0.000000 0.000000 10.000000 
R_forearm 0.000000 0.000000 0.000000 0.000000 0.000000 0.000000 10.000000 
R_front_hand 0.000000 0.000000 0.000000 0.000000 0.000000 0.000000 10.000000 
R_weapon_bone 0.000000 0.000000 0.000000 0.000000 0.000000 0.000000 10.000000 
R_front_hand01_01 0.000000 0.000000 0.000000 0.000000 0.000000 0.000000 10.000000 
R_front_hand02_01 0.000000 0.000000 0.000000 0.000000 0.000000 0.000000 10.000000 
R_front_hand03_01 0.000000 0.000000 0.000000 0.000000 0.000000 0.000000 10.000000 
R_front_hand01_02 0.000000 0.000000 0.000000 0.000000 0.000000 0.000000 10.000000 
R_front_hand02_02 0.000000 0.000000 0.000000 0.000000 0.000000 0.000000 10.000000 
R_front_hand03_02 0.000000 0.000000 0.000000 0.000000 0.000000 0.000000 10.000000 
null_rope01_connect 0.000000 0.000000 0.000000 0.000000 0.000000 0.000000 10.000000 
Rope1_Seg01 0.000000 0.000000 0.000000 0.000000 0.000000 0.000000 10.000000 
Rope1_Seg02 0.000000 0.000000 0.000000 0.000000 0.000000 0.000000 10.000000 
Rope1_Seg03 0.000000 0.000000 0.000000 0.000000 0.000000 0.000000 10.000000 
Rope1_Seg04 0.000000 0.000000 0.000000 0.000000 0.000000 0.000000 10.000000 
Rope1_Seg05 0.000000 0.000000 0.000000 0.000000 0.000000 0.000000 10.000000 
Rope1_Seg06 0.000000 0.000000 0.000000 0.000000 0.000000 0.000000 10.000000 
Rope1_Seg07 0.000000 0.000000 0.000000 0.000000 0.000000 0.000000 10.000000 
Rope1_Seg09 0.000000 0.000000 0.000000 0.000000 0.000000 0.000000 10.000000 
L_mid_hand01 0.000000 0.000000 0.000000 0.000000 0.000000 0.000000 10.000000 
L_mid_hand02 0.000000 0.000000 0.000000 0.000000 0.000000 0.000000 10.000000 
L_mid_hand03 0.000000 0.000000 0.000000 0.000000 0.000000 0.000000 10.000000 
null_rope02_connect 0.000000 0.000000 0.000000 0.000000 0.000000 0.000000 10.000000 
Rope2_Seg01 0.000000 0.000000 0.000000 0.000000 0.000000 0.000000 10.000000 
Rope2_Seg02 0.000000 0.000000 0.000000 0.000000 0.000000 0.000000 10.000000 
Rope2_Seg03 0.000000 0.000000 0.000000 0.000000 0.000000 0.000000 10.000000 
Rope2_Seg04 0.000000 0.000000 0.000000 0.000000 0.000000 0.000000 10.000000 
Rope2_Seg05 0.000000 0.000000 0.000000 0.000000 0.000000 0.000000 10.000000 
Rope2_Seg06 0.000000 0.000000 0.000000 0.000000 0.000000 0.000000 10.000000 
Rope2_Seg07 0.000000 0.000000 0.000000 0.000000 0.000000 0.000000 10.000000 
Rope2_Seg09 0.000000 0.000000 0.000000 0.000000 0.000000 0.000000 10.000000 
R_mid_hand01 0.000000 0.000000 0.000000 0.000000 0.000000 0.000000 10.000000 
R_mid_hand02 0.000000 0.000000 0.000000 0.000000 0.000000 0.000000 10.000000 
R_mid_hand03 0.000000 0.000000 0.000000 0.000000 0.000000 0.000000 10.000000 
spine02 0.000000 0.000000 0.000000 0.000000 0.000000 0.000000 10.000000 
spine03 0.000000 0.000000 0.000000 0.000000 0.000000 0.000000 10.000000 
pelvis 0.000000 0.000000 0.000000 0.000000 0.000000 0.000000 10.000000 
null_rope03_connect 0.000000 0.000000 0.000000 0.000000 0.000000 0.000000 10.000000 
null_rope04_connect 0.000000 0.000000 0.000000 0.000000 0.000000 0.000000 10.000000 
Rope3_Seg01 0.000000 0.000000 0.000000 0.000000 0.000000 0.000000 10.000000 
Rope3_Seg02 0.000000 0.000000 0.000000 0.000000 0.000000 0.000000 10.000000 
Rope3_Seg03 0.000000 0.000000 0.000000 0.000000 0.000000 0.000000 10.000000 
Rope3_Seg04 0.000000 0.000000 0.000000 0.000000 0.000000 0.000000 10.000000 
Rope3_Seg05 0.000000 0.000000 0.000000 0.000000 0.000000 0.000000 10.000000 
Rope3_Seg06 0.000000 0.000000 0.000000 0.000000 0.000000 0.000000 10.000000 
Rope3_Seg07 0.000000 0.000000 0.000000 0.000000 0.000000 0.000000 10.000000 
Rope3_Seg08 0.000000 0.000000 0.000000 0.000000 0.000000 0.000000 10.000000 
Rope3_Seg09 0.000000 0.000000 0.000000 0.000000 0.000000 0.000000 10.000000 
R_rear_hand01 0.000000 0.000000 0.000000 0.000000 0.000000 0.000000 10.000000 
R_rear_hand02 0.000000 0.000000 0.000000 0.000000 0.000000 0.000000 10.000000 
R_rear_hand03 0.000000 0.000000 0.000000 0.000000 0.000000 0.000000 10.000000 
Rope4_Seg01 0.000000 0.000000 0.000000 0.000000 0.000000 0.000000 10.000000 
Rope4_Seg02 0.000000 0.000000 0.000000 0.000000 0.000000 0.000000 10.000000 
Rope4_Seg03 0.000000 0.000000 0.000000 0.000000 0.000000 0.000000 10.000000 
Rope4_Seg04 0.000000 0.000000 0.000000 0.000000 0.000000 0.000000 10.000000 
Rope4_Seg05 0.000000 0.000000 0.000000 0.000000 0.000000 0.000000 10.000000 
Rope4_Seg06 0.000000 0.000000 0.000000 0.000000 0.000000 0.000000 10.000000 
Rope4_Seg07 0.000000 0.000000 0.000000 0.000000 0.000000 0.000000 10.000000 
Rope4_Seg08 0.000000 0.000000 0.000000 0.000000 0.000000 0.000000 10.000000 
Rope4_Seg09 0.000000 0.000000 0.000000 0.000000 0.000000 0.000000 10.000000 
L_rear_hand01 0.000000 0.000000 0.000000 0.000000 0.000000 0.000000 10.000000 
L_rear_hand02 0.000000 0.000000 0.000000 0.000000 0.000000 0.000000 10.000000 
L_rear_hand03 0.000000 0.000000 0.000000 0.000000 0.000000 0.000000 10.000000 
#Beginning of Data. Separated by tabs
#Fr	Tx	Ty	Tz	Rx	Ry	Rz	SF
[MASTER]
46 -0.000778 4778.984863 5015.578125 0.001660 0.001660 0.001660 6927.822266
47 -0.000788 4840.393555 5000.000000 0.001660 0.001660 0.001660 6959.124023
[root]
46 -208.065125 -75.541992 1253.024414 -81.578308 -24.770252 -90.281387 1272.426025
47 -156.616776 -74.696350 1330.573730 -84.310303 -27.970503 -90.203392 1341.839966
[chest]
46 -84.512650 -34.090519 0.000000 20.182482 6.721728 147.308121 91.129311
47 -84.512650 -34.090519 0.000000 20.313513 6.259488 151.715927 91.129311
[L_mid_tent01]
46 27.299170 22.179482 -249.918701 -12.383708 28.733223 42.801666 252.381729
47 27.299171 22.179489 -249.918701 -13.687512 27.275059 39.521946 252.381729
[R_mid_tent01]
46 23.228794 24.509907 226.238495 173.765289 -27.362564 63.505058 228.744751
47 23.228794 24.509907 226.238495 176.118423 -27.079523 59.450089 228.744751
[spine01]
46 -0.361383 -0.195265 0.000000 0.001949 0.001309 22.235294 0.410763
47 -0.361383 -0.195265 0.000000 0.001948 0.001309 22.207066 0.410763
[Bip01_Neck]
46 165.484543 71.581718 0.000119 176.643677 -1.657967 43.431911 180.302734
47 165.484543 71.581718 0.000119 176.643677 -1.657967 43.431911 180.302734
[L_humerus]
46 -13.983130 -135.272980 -120.471481 161.386932 63.269123 -106.475555 181.680161
47 -13.983130 -135.272980 -120.471481 156.317398 70.210068 -112.010254 181.680161
[R_humerus]
46 -13.983309 -135.273102 125.287651 -173.037476 -59.613590 -91.778130 184.909012
47 -13.983309 -135.273102 125.287651 -172.382263 -66.903831 -92.553993 184.909012
[weapon_bone]
46 235.964890 -300.705902 0.000000 0.000000 -89.951546 -128.212341 382.234833
47 235.964890 -300.705902 0.000000 0.000000 -89.951546 -128.212341 382.234833
[Bip01_Head]
46 213.442078 185.721420 11.705932 5.200446 6.151311 -43.834991 283.173065
47 213.442276 185.720810 11.713036 5.200446 6.151311 -43.834991 283.173126
[eye_left_bone]
46 -24.626970 125.451866 -64.772606 0.000000 -90.000000 -99.840431 143.318359
47 -24.626970 125.451866 -64.772606 0.000000 -90.000000 -99.840431 143.318359
[eye_right_bone]
46 -24.626970 125.451866 64.327362 0.000000 -89.965736 80.156380 143.117676
47 -24.626970 125.451866 64.327362 0.000000 -89.965736 80.156380 143.117676
[L_forearm]
46 322.776093 0.000000 -0.000119 0.000324 -0.002325 -105.872314 322.776093
47 322.776093 0.000000 -0.000119 0.000332 -0.002324 -106.257195 322.776093
[L_front_hand]
46 241.149185 -0.042021 -3.300071 52.781536 -1.835073 -27.421997 241.171753
47 241.149185 -0.042021 -3.300071 84.923889 -1.837437 -27.424435 241.171753
[L_weapon_bone]
46 156.183838 0.000000 0.000000 0.000014 0.000007 0.000001 156.183838
47 156.183838 0.000000 0.000000 0.000014 0.000007 0.000001 156.183838
[L_front_hand01_01]
46 86.095154 20.947098 -0.655860 -0.366593 -0.477155 75.385437 88.609184
47 86.095154 20.947098 -0.655860 -0.366594 -0.477154 75.385582 88.609184
[L_front_hand02_01]
46 86.935165 -11.437475 24.513514 154.399597 -59.883793 -61.369347 91.046425
47 86.935165 -11.437475 24.513514 154.399796 -59.883835 -61.369587 91.046425
[L_front_hand03_01]
46 86.637497 -14.123976 -20.424902 -153.913651 58.118080 -62.702652 90.126129
47 86.637497 -14.123976 -20.424902 -153.913849 58.118122 -62.702866 90.126129
[L_front_hand01_02]
46 71.020905 -0.000179 0.000030 0.001519 0.001790 -9.361034 71.020905
47 71.020905 -0.000179 0.000030 0.001082 0.002083 -35.089779 71.020905
[L_front_hand02_02]
46 71.020927 -0.000119 0.000060 0.001519 0.001790 -9.361034 71.020927
47 71.020927 -0.000119 0.000060 0.001082 0.002083 -35.089779 71.020927
[L_front_hand03_02]
46 71.020905 -0.000060 0.000060 0.001519 0.001790 -9.361034 71.020905
47 71.020905 -0.000060 0.000060 0.001082 0.002083 -35.089779 71.020905
[R_forearm]
46 322.776428 -0.000060 0.000030 0.208827 0.048860 -104.489815 322.776428
47 322.776428 -0.000060 0.000030 0.207357 0.050569 -104.876144 322.776428
[R_front_hand]
46 238.847015 -0.006795 2.210259 100.995483 -10.642806 -26.312672 238.857239
47 238.847015 -0.006795 2.210259 64.370514 -10.642594 -26.314331 238.857239
[R_weapon_bone]
46 155.664093 0.002503 -0.000030 0.003487 0.001180 -90.988930 155.664078
47 155.664093 0.002503 -0.000030 0.003487 0.001180 -90.988930 155.664078
[R_front_hand01_01]
46 87.624611 14.231146 22.918642 -154.633286 -59.950581 61.745811 91.683487
47 87.624611 14.231146 22.918642 -154.633514 -59.950634 61.746063 91.683487
[R_front_hand02_01]
46 89.356956 14.367283 -19.491137 154.602463 58.302822 63.744175 92.579636
47 89.356956 14.367283 -19.491137 154.602676 58.302864 63.744400 92.579636
[R_front_hand03_01]
46 87.286232 -22.307278 -0.143439 0.162154 -0.423168 -75.767784 90.091743
47 87.286232 -22.307278 -0.143439 0.162155 -0.423168 -75.767921 90.091743
[R_front_hand01_02]
46 71.020905 0.000060 0.000119 0.001828 0.001472 12.300447 71.020905
47 71.020905 0.000060 0.000119 0.002119 0.001009 39.068371 71.020905
[R_front_hand02_02]
46 71.020844 -0.000030 -0.000119 0.001828 0.001472 12.300447 71.020836
47 71.020844 -0.000030 -0.000119 0.002119 0.001009 39.068371 71.020836
[R_front_hand03_02]
46 71.020905 0.000000 0.000030 0.001828 0.001472 12.300447 71.020905
47 71.020905 0.000000 0.000030 0.002119 0.001009 39.068371 71.020905
[null_rope01_connect]
46 328.732483 0.000000 -0.000238 -124.954491 -66.262901 -167.171402 328.732483
47 328.732483 0.000000 -0.000238 -124.748108 -64.721611 -160.737961 328.732483
[Rope1_Seg01]
46 -0.000023 0.000007 0.000028 130.470734 58.985542 156.535126 0.000036
47 -0.000022 0.000006 0.000025 150.710587 67.640564 173.849609 0.000034
[Rope1_Seg02]
46 139.999863 -0.000179 0.000000 1.131497 1.057854 -4.693002 139.999863
47 139.999863 -0.000179 0.000000 -0.291189 2.415235 -2.156461 139.999863
[Rope1_Seg03]
46 139.999924 0.000060 -0.000060 1.979302 1.306739 -6.424789 139.999924
47 139.999924 0.000060 -0.000060 -0.520982 3.377681 -2.953068 139.999924
[Rope1_Seg04]
46 139.999924 -0.000060 -0.000119 4.899289 2.461148 -11.623472 139.999924
47 139.999924 -0.000060 -0.000119 -3.351691 7.781387 -4.224290 139.999924
[Rope1_Seg05]
46 139.999832 0.000119 -0.000060 7.360461 -0.050315 -9.453307 139.999832
47 139.999832 0.000119 -0.000060 3.910601 2.073298 -6.940243 139.999832
[Rope1_Seg06]
46 139.999954 0.000119 -0.000060 1.246324 -1.818243 0.427076 139.999954
47 139.999954 0.000119 -0.000060 7.909415 -3.741066 -4.211051 139.999954
[Rope1_Seg07]
46 139.999985 0.000060 0.000000 2.117798 -1.018365 -1.555644 139.999985
47 139.999985 0.000060 0.000000 3.784788 -1.230273 -2.563015 139.999985
[Rope1_Seg09]
46 121.602913 0.000119 -0.000089 -89.793175 -1.359789 0.847147 121.602913
47 121.602913 0.000119 -0.000089 -89.793175 -1.359789 0.847147 121.602913
[L_mid_hand01]
46 103.859421 1.038730 8.195221 130.544373 -67.584534 -38.866943 104.187431
47 103.859421 1.038730 8.195221 130.544373 -67.584534 -38.866943 104.187431
[L_mid_hand02]
46 105.572853 -4.139662 -10.864139 -168.923172 43.409309 -73.498886 106.211075
47 105.572853 -4.139662 -10.864139 -168.923172 43.409309 -73.498886 106.211075
[L_mid_hand03]
46 104.641464 17.579376 -3.913581 -6.012627 17.808174 74.893669 106.179977
47 104.641464 17.579376 -3.913581 -6.012627 17.808178 74.893677 106.179977
[null_rope02_connect]
46 328.732849 0.000179 -0.000119 -123.676392 55.378662 2.121768 328.732849
47 328.732849 0.000179 -0.000119 -119.054955 58.239056 0.579652 328.732849
[Rope2_Seg01]
46 0.000069 0.000028 0.000000 -83.854446 49.525452 8.684574 0.000075
47 0.000070 0.000025 0.000000 -92.323235 53.834011 3.430689 0.000074
[Rope2_Seg02]
46 139.999741 -0.000060 -0.000119 -2.840496 6.061810 0.673626 139.999756
47 139.999741 -0.000060 -0.000119 -2.999522 6.902572 0.192452 139.999756
[Rope2_Seg03]
46 140.000107 0.000030 0.000000 -4.250306 7.966040 0.395183 140.000107
47 140.000107 0.000030 0.000000 -4.813408 9.479346 -0.417522 140.000107
[Rope2_Seg04]
46 139.999802 0.000000 -0.000060 -4.483194 13.137174 -3.728698 139.999802
47 139.999802 0.000000 -0.000060 -7.809843 15.343525 -4.053330 139.999802
[Rope2_Seg05]
46 139.999985 -0.000060 0.000119 -21.048616 -0.993670 15.342054 139.999985
47 139.999985 -0.000060 0.000119 -22.116756 -5.051630 16.252337 139.999985
[Rope2_Seg06]
46 139.999893 -0.000030 -0.000119 -10.771491 -17.567501 19.499722 139.999893
47 139.999893 -0.000030 -0.000119 -7.743006 -22.334400 17.110945 139.999893
[Rope2_Seg07]
46 139.999893 0.000060 -0.000060 -2.626601 -8.389627 8.694119 139.999893
47 139.999893 0.000060 -0.000060 -1.953174 -9.907941 7.787853 139.999893
[Rope2_Seg09]
46 121.338966 0.000089 -0.000060 33.793236 -1.359788 -0.847141 121.338966
47 121.338966 0.000089 -0.000060 33.793236 -1.359788 -0.847141 121.338966
[R_mid_hand01]
46 104.680779 11.144459 -10.335981 -16.212063 45.237247 70.462852 105.778534
47 104.680779 11.144459 -10.335981 -16.212063 45.237247 70.462852 105.778534
[R_mid_hand02]
46 104.070427 2.443552 8.231699 49.067368 -67.749771 39.286453 104.424065
47 104.070427 2.443552 8.231699 49.067368 -67.749771 39.286453 104.424065
[R_mid_hand03]
46 106.028137 -11.221827 -5.996406 -177.101105 15.551026 -76.585571 106.788818
47 106.028137 -11.221827 -5.996406 -177.101105 15.551026 -76.585571 106.788818
[spine02]
46 129.756927 0.001550 0.000119 -0.004971 -4.061133 -7.775570 129.756927
47 129.756927 0.001550 0.000119 0.034878 -4.061316 -8.339254 129.756927
[spine03]
46 78.613922 0.081288 -4.898987 1.677391 3.934147 13.273426 78.766457
47 78.613922 0.081277 -4.898987 1.701878 3.923747 13.632509 78.766457
[pelvis]
46 169.435242 0.051022 0.000000 -0.040544 -0.187305 7.614094 169.435257
47 169.435242 0.051022 0.000000 -0.041583 -0.185407 8.323073 169.435257
[null_rope03_connect]
46 -1.257226 -2.466202 137.391083 22.178972 -80.944984 57.281471 137.418976
47 -1.257226 -2.466202 137.391083 24.965624 -83.613281 57.218880 137.418976
[null_rope04_connect]
46 -1.259640 -2.480268 -137.844437 22.178972 -80.944984 57.281471 137.872513
47 -1.259640 -2.480268 -137.844437 24.965624 -83.613281 57.218880 137.872513
[Rope3_Seg01]
46 0.000000 0.000000 0.000000 -136.483063 -14.151981 -47.077450 0.000000
47 0.000000 0.000000 0.000000 -134.310425 -11.436832 -52.927685 0.000000
[Rope3_Seg02]
46 139.999924 -0.000119 0.000060 5.440909 -5.161973 12.475378 139.999924
47 139.999924 -0.000119 0.000060 3.316678 -3.552213 9.846198 139.999924
[Rope3_Seg03]
46 139.999924 -0.000119 0.000119 2.216914 -2.949322 5.335220 139.999924
47 139.999924 -0.000119 0.000119 1.494761 -2.720897 3.825942 139.999924
[Rope3_Seg04]
46 139.999924 0.000119 0.000000 1.624685 -0.995785 7.749391 139.999924
47 139.999924 0.000119 0.000000 1.132381 -0.659010 6.685959 139.999924
[Rope3_Seg05]
46 139.999924 -0.000238 0.000060 1.351431 0.928533 12.944670 139.999924
47 139.999924 -0.000238 0.000060 1.005923 1.780200 12.089227 139.999924
[Rope3_Seg06]
46 139.999893 -0.000119 -0.000060 0.501026 0.780061 9.194417 139.999893
47 139.999893 -0.000119 -0.000060 0.393926 1.286861 8.416941 139.999893
[Rope3_Seg07]
46 139.999771 0.000060 -0.000119 0.193258 0.442193 6.009278 139.999771
47 139.999771 0.000060 -0.000119 0.190519 0.740217 5.470072 139.999771
[Rope3_Seg08]
46 139.999985 -0.000060 0.000000 0.179717 0.292546 3.840712 139.999985
47 139.999985 -0.000060 0.000000 0.204577 0.485239 3.514548 139.999985
[Rope3_Seg09]
46 90.185997 -0.000179 -0.000060 89.793228 -1.359877 -0.847183 90.185997
47 90.185997 -0.000179 -0.000060 89.793228 -1.359877 -0.847183 90.185997
[R_rear_hand01]
46 103.366196 -6.073594 -10.757982 -177.714203 24.565960 -73.910950 104.101845
47 103.366196 -6.073594 -10.757982 -177.714203 24.565960 -73.910950 104.101845
[R_rear_hand02]
46 100.509819 12.039542 -7.992327 -12.874829 36.868488 72.167213 101.543350
47 100.509819 12.039542 -7.992327 -12.874829 36.868488 72.167213 101.543350
[R_rear_hand03]
46 101.539970 5.215704 5.435467 71.484581 -71.816628 21.513813 101.819031
47 101.539970 5.215704 5.435467 71.484581 -71.816628 21.513813 101.819031
[Rope4_Seg01]
46 0.000010 0.000007 -0.000028 47.487614 -1.232734 -130.870758 0.000030
47 0.000010 0.000006 -0.000025 48.162910 -2.066488 -128.611099 0.000027
[Rope4_Seg02]
46 139.999985 0.000060 0.000119 -2.242164 5.321888 -2.563881 139.999985
47 139.999985 0.000060 0.000119 -1.367116 4.716639 -1.262519 139.999985
[Rope4_Seg03]
46 139.999924 0.000000 -0.000238 -2.831803 6.106611 -4.515151 139.999924
47 139.999924 0.000000 -0.000238 -1.663262 5.495212 -2.390859 139.999924
[Rope4_Seg04]
46 139.999985 0.000000 0.000119 -3.931196 8.731720 -7.927369 139.999985
47 139.999985 0.000000 0.000119 -2.295245 9.096178 -4.404804 139.999985
[Rope4_Seg05]
46 139.999802 -0.000060 -0.000119 3.837071 28.421713 14.763617 139.999802
47 139.999802 -0.000060 -0.000119 2.334610 24.762928 9.954971 139.999802
[Rope4_Seg06]
46 139.999924 0.000000 0.000060 0.400080 11.694604 6.314952 139.999924
47 139.999924 0.000000 0.000060 0.559091 8.939439 3.637602 139.999924
[Rope4_Seg07]
46 139.999802 0.000000 0.000000 0.285509 5.335240 2.371843 139.999802
47 139.999802 0.000000 0.000000 0.445511 4.428705 1.493852 139.999802
[Rope4_Seg08]
46 139.999924 0.000000 0.000119 -1.391892 2.856443 1.258304 139.999924
47 139.999924 0.000000 0.000119 -1.267413 2.439293 0.805794 139.999924
[Rope4_Seg09]
46 90.185791 0.000060 0.000060 -135.617828 2.228885 0.850567 90.185791
47 90.185791 0.000060 0.000060 -135.617828 2.228885 0.850567 90.185791
[L_rear_hand01]
46 101.696655 -8.392275 -7.654577 -12.874829 -36.868488 107.832764 102.329041
47 101.696655 -8.392275 -7.654577 -12.874829 -36.868488 107.832764 102.329041
[L_rear_hand02]
46 102.726799 -1.568258 5.773216 71.484581 71.816628 158.486160 102.900848
47 102.726799 -1.568258 5.773216 71.484581 71.816628 158.486160 102.900848
[L_rear_hand03]
46 104.552910 9.721220 -10.420293 -177.714203 -24.565960 -106.089035 105.519653
47 104.552910 9.721220 -10.420293 -177.714203 -24.565960 -106.089035 105.519653
